<?xml version="1.0" encoding="UTF-8"?>
<!DOCTYPE svg PUBLIC "-//W3C//DTD SVG 1.1//EN" "http://www.w3.org/Graphics/SVG/1.1/DTD/svg11.dtd">
<!-- Creator: CorelDRAW -->
<svg xmlns="http://www.w3.org/2000/svg" xml:space="preserve" width="3000px" height="1204px" version="1.1" style="shape-rendering:geometricPrecision; text-rendering:geometricPrecision; image-rendering:optimizeQuality; fill-rule:evenodd; clip-rule:evenodd"
viewBox="0 0 800 302.27"
 xmlns:xlink="http://www.w3.org/1999/xlink"
 xmlns:xodm="http://www.corel.com/coreldraw/odm/2003">
 <defs>
  <style type="text/css">
   <![CDATA[
    .fil6 {fill:#003C6B}
    .fil0 {fill:#004580}
    .fil5 {fill:#DF9C03}
    .fil4 {fill:#FCC719}
    .fil7 {fill:#FCC719}
    .fil3 {fill:white}
    .fil1 {fill:#003C6B;fill-rule:nonzero}
    .fil2 {fill:white;fill-rule:nonzero}
   ]]>
  </style>
 </defs>
 <g id="圖層_x0020_1">
  <metadata id="CorelCorpID_0Corel-Layer"/>
  <path class="fil0" d="M99.61 197.8c-34.59,-55.24 -38.1,-111.89 8.8,-170.83 44.86,-21.37 91.7,-9.19 140.27,32.41 35.7,28.95 53.09,118.39 18.05,152.3 -51.9,36.16 -106.57,42.57 -167.12,-13.88zm70.35 -72.42c4.1,-9.24 8.07,-18.18 12.2,-26.67 -12.43,1.18 -21.39,9.73 -29.04,22.31 -1.86,3.05 -3.38,6.41 3.49,5.45 4.79,-0.68 9.24,-1.03 13.35,-1.09zm68.35 8.73c-6.88,7.62 -14.29,15.21 -21.79,22.64 1.16,3.44 2.11,7.1 2.9,10.94 1.24,6.01 3.72,5.98 6.76,2.18 10.28,-12.87 15.13,-24.66 12.13,-35.76zm-80.92 57.58c-0.86,-10.24 -4.26,-15.5 -1.14,-25.13 -7.91,10.47 -16.71,21.13 -25.68,27.96 -7.92,4.84 -14.99,7.41 -20.6,6.11 0.38,0.39 0.76,0.78 1.15,1.17 15.04,15.04 34.29,25.87 55.83,30.58 -9.87,-10.53 -7.63,-22.79 1.96,-36.1 2.2,-3 4.39,-6.01 6.59,-9.01 -6.85,4.23 -10.78,2.81 -18.11,4.42z"/>
  <path class="fil1" d="M174.89 92.19c11.44,-3.34 25.12,0.07 42.44,10.22 17.75,10.41 26.77,17.26 28.93,33.44 3.67,17.82 -25.63,70.73 -33.36,33.17 -2.62,-12.74 -7.09,-23.19 -15.33,-29.56 -8.3,-6.41 -20.93,-10.1 -40.05,-7.41 -7.96,1.12 -15.74,1.75 -16.78,-2.9 -1.6,-7.19 23.66,-33.9 34.15,-36.96z"/>
  <path class="fil2" d="M213.97 108.15c-31.13,-18.24 -47.86,-8.47 -60.85,12.87 -1.86,3.05 -3.38,6.41 3.49,5.45 42.17,-5.94 56.96,12.8 62.81,41.22 1.24,6.01 3.72,5.98 6.76,2.18 18.67,-23.36 19.42,-43.18 -12.21,-61.72z"/>
  <circle class="fil3" cx="253.56" cy="178.65" r="4.28"/>
  <circle class="fil3" cx="121.37" cy="160.42" r="4.28"/>
  <path class="fil3" d="M139.28 89.63c-1.63,-11.43 -6.66,-16.01 -15.3,-17.45 -0.25,-0.04 -0.43,-0.25 -0.43,-0.5 0,-0.24 0.18,-0.45 0.43,-0.49 8.64,-1.44 13.67,-6.02 15.3,-17.45 0.03,-0.25 0.25,-0.44 0.5,-0.44 0.25,0.01 0.46,0.19 0.5,0.44 1.63,11.43 6.66,16.01 15.3,17.45 0.24,0.04 0.42,0.25 0.42,0.49 0,0.25 -0.17,0.46 -0.42,0.5 -8.64,1.44 -13.67,6.02 -15.3,17.45 -0.04,0.25 -0.25,0.44 -0.5,0.44 -0.26,0 -0.47,-0.19 -0.5,-0.44z"/>
  <path class="fil3" d="M108.46 129.3c-0.9,-6.32 -3.68,-8.86 -8.46,-9.65 -0.14,-0.02 -0.23,-0.14 -0.23,-0.28 0,-0.13 0.09,-0.25 0.23,-0.27 4.78,-0.79 7.56,-3.33 8.46,-9.65 0.02,-0.14 0.14,-0.24 0.28,-0.24 0.14,0 0.26,0.1 0.28,0.24 0.9,6.32 3.68,8.86 8.46,9.65 0.14,0.02 0.23,0.14 0.23,0.27 0,0.14 -0.09,0.26 -0.23,0.28 -4.78,0.79 -7.56,3.33 -8.46,9.65 -0.02,0.14 -0.14,0.24 -0.28,0.24 -0.14,0 -0.26,-0.1 -0.28,-0.24z"/>
  <path class="fil3" d="M224.01 211.45c-0.55,-3.85 -2.24,-5.39 -5.14,-5.87 -0.08,-0.01 -0.14,-0.08 -0.14,-0.17 0,-0.08 0.06,-0.15 0.14,-0.16 2.9,-0.48 4.59,-2.02 5.14,-5.87 0.01,-0.08 0.08,-0.14 0.17,-0.14 0.08,0 0.15,0.06 0.17,0.14 0.54,3.85 2.24,5.39 5.14,5.87 0.08,0.01 0.14,0.08 0.14,0.16 0,0.09 -0.06,0.16 -0.14,0.17 -2.9,0.48 -4.6,2.02 -5.14,5.87 -0.02,0.08 -0.09,0.14 -0.17,0.14 -0.09,0 -0.16,-0.06 -0.17,-0.14z"/>
  <path class="fil3" d="M182.84 53.22c-1.08,-3.78 -3.38,-5.72 -6.44,-6.5 -0.2,-0.06 -0.34,-0.23 -0.34,-0.44 0,-0.2 0.14,-0.37 0.34,-0.43 3.06,-0.78 5.36,-2.72 6.44,-6.5 0.05,-0.2 0.22,-0.33 0.42,-0.33 0.21,0 0.38,0.13 0.43,0.33 1.08,3.78 3.38,5.72 6.44,6.5 0.2,0.05 0.34,0.23 0.34,0.43 0,0.21 -0.14,0.38 -0.34,0.44 -3.06,0.78 -5.36,2.72 -6.44,6.5 -0.05,0.2 -0.22,0.32 -0.43,0.32 -0.2,0 -0.37,-0.12 -0.42,-0.32z"/>
  <path class="fil1" d="M294.2 198.96c-10.22,30.29 -29.57,56.74 -55.02,75 -24.82,17.82 -55.22,28.31 -88.03,28.31 -41.74,0 -79.53,-16.92 -106.88,-44.27 -27.35,-27.36 -44.27,-65.14 -44.27,-106.88 0,-41.09 16.42,-78.36 43.05,-105.61 26.7,-27.31 63.67,-44.55 104.68,-45.47 4.49,-0.08 21.54,-0.65 21.55,6.88 0.49,6.38 -13.59,7.13 -18.49,8.86 -21.63,8.27 -40.07,22.96 -52.99,41.73 -12.54,18.21 -19.87,40.31 -19.87,64.16 0,31.29 12.68,59.62 33.19,80.13 20.5,20.51 48.83,33.19 80.13,33.19 17.74,0 34.51,-4.06 49.42,-11.29 15.52,-7.54 29.06,-18.49 39.63,-31.89 5.8,-7.74 9.9,-23.44 16.44,-20.26 5.43,2.64 -3.92,30.93 -2.54,27.41z"/>
  <path class="fil4" d="M286.67 196.84c-19.07,56.55 -72.54,97.27 -135.52,97.27 -78.97,0 -142.99,-64.02 -142.99,-142.99 0,-77.88 62.26,-141.22 139.73,-142.95 -45.68,17.46 -78.12,61.69 -78.12,113.5 0,67.09 54.39,121.48 121.48,121.48 38.7,0 73.18,-18.11 95.42,-46.31z"/>
  <ellipse class="fil5" transform="matrix(0.517536 0.855661 -0.855661 0.517536 53.8485 200.148)" rx="17.57" ry="13.89"/>
  <ellipse class="fil5" transform="matrix(0.735764 0.677238 -0.677238 0.735764 90.8202 248.514)" rx="14.5" ry="10.43"/>
  <ellipse class="fil5" transform="matrix(0.788012 0.61566 -0.61566 0.788012 122.822 273)" rx="4.92" ry="4.19"/>
  <ellipse class="fil5" transform="matrix(0.999168 0.0407859 -0.0407859 0.999168 179.189 270.455)" rx="5.94" ry="4.9"/>
  <ellipse class="fil5" transform="matrix(0.999035 0.0439175 -0.0439175 0.999035 34.2107 128.144)" rx="11.04" ry="11.87"/>
  <ellipse class="fil5" transform="matrix(-0.99093 -0.134376 0.134376 -0.99093 54.3336 76.9897)" rx="7.22" ry="7.05"/>
  <path class="fil6" d="M138.29 172.33c-19.65,21.9 -36.34,16.87 -50.2,-3.68 5.44,11.91 12.87,22.71 21.88,31.98 5.61,1.3 12.68,-1.27 20.6,-6.11 8.97,-6.83 17.77,-17.49 25.68,-27.96 0.06,-0.19 0.12,-0.38 0.19,-0.57 2.66,-3.94 3.29,-7.65 7.42,-11.81 2.06,-2.51 8.33,-1.39 10.43,-6.59l-6.26 -4.3 0 0c-0.4,-0.21 -0.75,-0.44 -1.05,-0.69 -8.3,3.9 -18.25,16.93 -28.69,29.73z"/>
  <path class="fil6" d="M168.91 196.28c-9.59,13.31 -11.83,25.57 -1.96,36.1 7.83,1.71 15.96,2.61 24.3,2.61 8.11,0 16.01,-0.85 23.63,-2.46 -34.54,1.89 -52.35,-15.47 -29.77,-42.02 7.52,-8.84 14.21,-18.16 13.17,-26.48l-8.22 -5.64c0.34,0.25 0.68,0.49 1.02,0.74 -2.48,2.79 -1.59,7.82 -1.77,11.93 -0.06,1.37 -0.52,2.52 -1.4,3.57 -2.68,3.16 -5.42,6.64 -8.08,9.69 -1.44,1.08 -2.89,2.06 -4.33,2.95 -2.2,3 -4.39,6.01 -6.59,9.01z"/>
  <path class="fil1" d="M205.15 145.09c15.45,-15.2 29.49,-29.95 39.5,-44.64 -3.13,1.67 -6.71,2.62 -10.5,2.62 -6.17,0 -11.76,-2.5 -15.8,-6.54 -4.04,-4.05 -6.55,-9.63 -6.55,-15.8 0,-0.33 0.01,-0.65 0.03,-0.98 -10.21,14.54 -18.17,32.38 -26.7,51.62l20.02 13.72zm58.13 -43.69c-11.87,20.25 -33,42 -53.65,62.11 -2.7,2.85 -7.14,3.4 -10.49,1.11l-31.11 -21.33 0 0c-6.29,-3.2 -0.18,-13.14 1.83,-17.67 21.11,-47.64 38.85,-87.63 92.33,-97.06 3.96,-0.94 8.09,1.19 9.54,5.1 8.93,24.11 4.18,46.22 -8.45,67.74zm-6.93 -23.17c3.73,-10.49 4.76,-21.17 2.12,-32.22 -10.31,2.63 -19,6.89 -26.52,12.48 0.72,-0.07 1.46,-0.11 2.2,-0.11 6.17,0 11.75,2.5 15.8,6.55 3.49,3.49 5.83,8.13 6.4,13.3zm-71.22 53.13c0.04,-0.09 0.05,-0.11 0,0zm53.28 -54.9c-1.09,-1.09 -2.6,-1.76 -4.26,-1.76 -1.67,0 -3.18,0.67 -4.27,1.76 -1.09,1.09 -1.76,2.6 -1.76,4.27 0,1.66 0.67,3.17 1.76,4.26 1.09,1.09 2.6,1.77 4.27,1.77 1.66,0 3.17,-0.68 4.26,-1.77 1.09,-1.09 1.77,-2.6 1.77,-4.26 0,-1.67 -0.68,-3.18 -1.77,-4.27z"/>
  <path class="fil3" d="M206.05 155.58c40.65,-39.57 73.94,-76.17 58.03,-119.08 -51.51,8.84 -67.82,49.81 -89.14,97.75 10.37,7.11 20.74,14.22 31.11,21.33zm28.1 -89.04c7.83,0 14.19,6.35 14.19,14.19 0,7.83 -6.36,14.18 -14.19,14.18 -7.84,0 -14.19,-6.35 -14.19,-14.18 0,-7.84 6.35,-14.19 14.19,-14.19z"/>
  <path class="fil3" d="M130.57 194.52c-7.92,4.84 -14.99,7.41 -20.6,6.11 0.38,0.39 0.76,0.78 1.15,1.17 15.04,15.04 34.29,25.87 55.83,30.58 -9.87,-10.53 -7.63,-22.79 1.96,-36.1 2.2,-3 4.39,-6.01 6.59,-9.01 -6.85,4.23 -10.78,2.81 -18.11,4.42 -0.86,-10.24 -4.26,-15.5 -1.14,-25.13 -7.91,10.47 -16.71,21.13 -25.68,27.96z"/>
  <path class="fil7" d="M163.86 154.18c2.11,-2.57 8.63,-1.33 10.57,-6.98 5.55,3.98 11.1,7.95 16.65,11.93 -2.48,2.79 -1.59,7.82 -1.77,11.93 -0.06,1.37 -0.52,2.52 -1.4,3.57 -2.68,3.16 -5.42,6.64 -8.08,9.69 -8.27,6.16 -16.54,9.19 -25.42,11.14 -0.88,-10.44 -1.3,-19.63 2.03,-29.47 2.66,-3.94 3.29,-7.65 7.42,-11.81zm4.5 7.76c-3.05,5.19 -3.59,11.42 -3.04,18.11 4.48,-1.66 9.05,-3.84 14.74,-13.05 2.26,-4.44 1.06,-7.09 -1.8,-8.77 -4.16,-2.44 -7.19,-0.21 -9.9,3.71z"/>
  <text x="320" y="195" font-family="'PingFang SC', 'Microsoft YaHei', sans-serif" font-size="105" font-weight="bold" fill="#003C6B" letter-spacing="10">明月知行</text>
 </g>
</svg>
